<svg width="36" height="36" viewBox="0 0 36 36" fill="none" xmlns="http://www.w3.org/2000/svg">
<rect width="36" height="36" rx="6" fill="#528460"/>
<path fill-rule="evenodd" clip-rule="evenodd" d="M11.7032 11.3117L11.472 11.5582L11.448 11.5828C10.6938 12.3497 9.47958 12.3418 8.73525 11.5582C7.99153 10.7753 7.98394 9.49638 8.71189 8.7024L8.73525 8.6778L8.967 8.43138L9.60683 7.76025C10.3587 6.96934 11.5887 6.96934 12.3429 7.76025C13.0949 8.55183 13.0949 9.84975 12.3429 10.6413L11.7032 11.3117ZM22.2898 24.8989L22.5158 25.1374L22.7761 25.4108L25.1614 27.9219C25.9127 28.7134 27.1433 28.7134 27.8975 27.9219C28.6495 27.1279 28.6495 25.833 27.8975 25.0415L23.6576 20.578C22.9063 19.787 21.6757 19.787 20.9215 20.578L19.5531 22.0185L19.3114 22.276L16.6658 25.0605C15.9145 25.8521 15.9145 27.1469 16.6658 27.9409C17.4177 28.7325 18.6506 28.7325 19.4025 27.9409L22.0476 25.1564L22.2898 24.8989ZM27.8795 7.8758H27.8818C28.6337 8.66675 28.6337 9.96467 27.8818 10.7562L11.5916 27.9028C10.8398 28.6968 9.60682 28.6968 8.85494 27.9028C8.10363 27.1113 8.10363 25.8164 8.85494 25.0224L25.1456 7.8758C25.897 7.08426 27.1275 7.08426 27.8795 7.8758ZM20.0814 7.85061C20.8327 8.64215 20.8327 9.93763 20.0814 10.7316L14.2134 16.9091L11.5677 19.6936C10.8164 20.4852 9.58347 20.4852 8.83159 19.6936C8.0797 18.8996 8.0797 17.6042 8.83159 16.8132L11.4767 14.0281L15.4907 9.80305L17.3447 7.85061C18.0966 7.05967 19.3295 7.05967 20.0814 7.85061Z" fill="white"/>
</svg>
