<svg width="116" height="15" viewBox="0 0 116 15" fill="none" xmlns="http://www.w3.org/2000/svg">
<path d="M0.5 14.7514V0.24863H7.06187C8.63039 0.24863 10.0128 0.55251 11.2096 1.16024C12.4067 1.75415 13.342 2.5898 14.0162 3.66713C14.6904 4.7445 15.0275 6.02212 15.0275 7.50001C15.0275 8.96411 14.6904 10.2417 14.0162 11.3329C13.342 12.4102 12.4067 13.2528 11.2096 13.8605C10.0128 14.4544 8.63039 14.7514 7.06187 14.7514H0.5ZM3.84273 11.9959H6.89677C7.85996 11.9959 8.69233 11.8163 9.3939 11.4572C10.1093 11.0843 10.6596 10.5594 11.0445 9.8826C11.4436 9.20582 11.6432 8.41163 11.6432 7.50001C11.6432 6.5746 11.4436 5.78041 11.0445 5.11742C10.6596 4.44061 10.1093 3.92267 9.3939 3.56354C8.69233 3.19061 7.85996 3.00415 6.89677 3.00415H3.84273V11.9959ZM23.4694 6.09117H30.4237V8.70168H23.4694V6.09117ZM23.7169 12.058H31.579V14.7514H20.3946V0.24863H31.3108V2.94201H23.7169V12.058ZM37.0854 14.7514V0.24863H39.8504L48.373 10.6906H47.0318V0.24863H50.3333V14.7514H47.5887L39.0457 4.3094H40.3869V14.7514H37.0854ZM55.6686 14.7514V12.576L64.6037 1.76106L65.0165 2.98344H55.8337V0.24863H67.9879V2.42404L59.0735 13.239L58.6607 12.0166H68.2976V14.7514H55.6686ZM73.288 14.7514V0.24863H76.6307V14.7514H73.288ZM82.9051 14.7514V0.24863H85.6704L94.1926 10.6906H92.8515V0.24863H96.1533V14.7514H93.4087L84.8654 4.3094H86.2069V14.7514H82.9051ZM109.392 15C108.25 15 107.198 14.8204 106.235 14.4613C105.285 14.0884 104.453 13.5636 103.738 12.8868C103.036 12.21 102.486 11.4157 102.087 10.5042C101.702 9.59255 101.509 8.59118 101.509 7.50001C101.509 6.40885 101.702 5.40748 102.087 4.49587C102.486 3.58425 103.043 2.79006 103.758 2.11328C104.474 1.43647 105.313 0.918526 106.276 0.559394C107.239 0.186464 108.298 0 109.454 0C110.733 0 111.882 0.21409 112.9 0.64227C113.932 1.07045 114.798 1.69201 115.5 2.50692L113.354 4.49587C112.831 3.94339 112.26 3.53592 111.641 3.27349C111.022 2.99726 110.348 2.85914 109.619 2.85914C108.917 2.85914 108.277 2.96964 107.7 3.19061C107.122 3.41162 106.62 3.7293 106.193 4.14365C105.781 4.55803 105.457 5.04835 105.223 5.61465C105.003 6.18096 104.893 6.80941 104.893 7.50001C104.893 8.17679 105.003 8.79835 105.223 9.36466C105.457 9.93094 105.781 10.4282 106.193 10.8563C106.62 11.2707 107.115 11.5884 107.679 11.8094C108.257 12.0304 108.89 12.1409 109.577 12.1409C110.238 12.1409 110.878 12.0373 111.497 11.8301C112.13 11.6091 112.742 11.2431 113.333 10.732L115.232 13.1561C114.447 13.75 113.533 14.2058 112.487 14.5235C111.455 14.8412 110.424 15 109.392 15ZM112.178 12.721V7.2721H115.232V13.1561L112.178 12.721Z" fill="#1F2227"/>
</svg>
