<svg width="116" height="63" viewBox="0 0 116 63" fill="none" xmlns="http://www.w3.org/2000/svg">
<g clip-path="url(#clip0_2_150)">
<rect x="40" width="36" height="36" rx="6" fill="#528460"/>
<path fill-rule="evenodd" clip-rule="evenodd" d="M51.7032 11.3117L51.472 11.5582L51.448 11.5828C50.6938 12.3497 49.4796 12.3418 48.7352 11.5582C47.9915 10.7753 47.9839 9.49638 48.7119 8.7024L48.7352 8.6778L48.967 8.43138L49.6068 7.76025C50.3587 6.96934 51.5887 6.96934 52.3429 7.76025C53.0949 8.55183 53.0949 9.84975 52.3429 10.6413L51.7032 11.3117ZM62.2898 24.8989L62.5158 25.1374L62.7761 25.4108L65.1614 27.9219C65.9127 28.7134 67.1433 28.7134 67.8975 27.9219C68.6495 27.1279 68.6495 25.833 67.8975 25.0415L63.6576 20.578C62.9063 19.787 61.6757 19.787 60.9215 20.578L59.5531 22.0185L59.3114 22.276L56.6658 25.0605C55.9145 25.8521 55.9145 27.1469 56.6658 27.9409C57.4177 28.7325 58.6506 28.7325 59.4025 27.9409L62.0476 25.1564L62.2898 24.8989ZM67.8795 7.8758H67.8818C68.6337 8.66675 68.6337 9.96467 67.8818 10.7562L51.5916 27.9028C50.8398 28.6968 49.6068 28.6968 48.8549 27.9028C48.1036 27.1113 48.1036 25.8164 48.8549 25.0224L65.1456 7.8758C65.897 7.08426 67.1275 7.08426 67.8795 7.8758ZM60.0814 7.85061C60.8327 8.64215 60.8327 9.93763 60.0814 10.7316L54.2134 16.9091L51.5677 19.6936C50.8164 20.4852 49.5835 20.4852 48.8316 19.6936C48.0797 18.8996 48.0797 17.6042 48.8316 16.8132L51.4767 14.0281L55.4907 9.80305L57.3447 7.85061C58.0966 7.05967 59.3295 7.05967 60.0814 7.85061Z" fill="white"/>
<path d="M0.5 62.7514V48.2486H7.06187C8.63039 48.2486 10.0128 48.5525 11.2096 49.1602C12.4067 49.7541 13.342 50.5898 14.0162 51.6671C14.6904 52.7445 15.0275 54.0221 15.0275 55.5C15.0275 56.9641 14.6904 58.2417 14.0162 59.3329C13.342 60.4102 12.4067 61.2528 11.2096 61.8605C10.0128 62.4544 8.63039 62.7514 7.06187 62.7514H0.5ZM3.84273 59.9959H6.89677C7.85996 59.9959 8.69233 59.8163 9.3939 59.4572C10.1093 59.0843 10.6596 58.5594 11.0445 57.8826C11.4436 57.2058 11.6432 56.4116 11.6432 55.5C11.6432 54.5746 11.4436 53.7804 11.0445 53.1174C10.6596 52.4406 10.1093 51.9227 9.3939 51.5635C8.69233 51.1906 7.85996 51.0041 6.89677 51.0041H3.84273V59.9959ZM23.4694 54.0912H30.4237V56.7017H23.4694V54.0912ZM23.7169 60.058H31.579V62.7514H20.3946V48.2486H31.3108V50.942H23.7169V60.058ZM37.0854 62.7514V48.2486H39.8504L48.373 58.6906H47.0318V48.2486H50.3333V62.7514H47.5887L39.0457 52.3094H40.3869V62.7514H37.0854ZM55.6686 62.7514V60.576L64.6037 49.7611L65.0165 50.9834H55.8337V48.2486H67.9879V50.424L59.0735 61.239L58.6607 60.0166H68.2976V62.7514H55.6686ZM73.288 62.7514V48.2486H76.6307V62.7514H73.288ZM82.9051 62.7514V48.2486H85.6704L94.1926 58.6906H92.8515V48.2486H96.1533V62.7514H93.4087L84.8654 52.3094H86.2069V62.7514H82.9051ZM109.392 63C108.25 63 107.198 62.8204 106.235 62.4613C105.285 62.0884 104.453 61.5636 103.738 60.8868C103.036 60.21 102.486 59.4157 102.087 58.5042C101.702 57.5925 101.509 56.5912 101.509 55.5C101.509 54.4089 101.702 53.4075 102.087 52.4959C102.486 51.5843 103.043 50.7901 103.758 50.1133C104.474 49.4365 105.313 48.9185 106.276 48.5594C107.239 48.1865 108.298 48 109.454 48C110.733 48 111.882 48.2141 112.9 48.6423C113.932 49.0705 114.798 49.692 115.5 50.5069L113.354 52.4959C112.831 51.9434 112.26 51.5359 111.641 51.2735C111.022 50.9973 110.348 50.8591 109.619 50.8591C108.917 50.8591 108.277 50.9696 107.7 51.1906C107.122 51.4116 106.62 51.7293 106.193 52.1436C105.781 52.558 105.457 53.0483 105.223 53.6147C105.003 54.181 104.893 54.8094 104.893 55.5C104.893 56.1768 105.003 56.7984 105.223 57.3647C105.457 57.9309 105.781 58.4282 106.193 58.8563C106.62 59.2707 107.115 59.5884 107.679 59.8094C108.257 60.0304 108.89 60.1409 109.577 60.1409C110.238 60.1409 110.878 60.0373 111.497 59.8301C112.13 59.6091 112.742 59.2431 113.333 58.732L115.232 61.1561C114.447 61.75 113.533 62.2058 112.487 62.5235C111.455 62.8412 110.424 63 109.392 63ZM112.178 60.721V55.2721H115.232V61.1561L112.178 60.721Z" fill="#1F2227"/>
</g>
<defs>
<clipPath id="clip0_2_150">
<rect width="115" height="63" fill="white" transform="translate(0.5)"/>
</clipPath>
</defs>
</svg>
